<svg width="1501" height="1501" viewBox="0 0 1501 1501" fill="none" xmlns="http://www.w3.org/2000/svg">
<circle cx="750.5" cy="750.5" r="750.5" fill="#121212"/>
<path d="M68 552.683C68 540.708 77.7079 531 89.6832 531H1412.36C1424.33 531 1434.04 540.708 1434.04 552.683V947.317C1434.04 959.292 1424.33 969 1412.36 969H89.6832C77.7079 969 68 959.292 68 947.317V552.683Z" fill="#121212"/>
<path fill-rule="evenodd" clip-rule="evenodd" d="M195.931 656.762C195.931 639.997 209.522 626.406 226.287 626.406H278.327C295.092 626.406 308.683 639.997 308.683 656.762V717.475C308.683 734.241 295.092 747.832 278.327 747.832H226.287C209.522 747.832 195.931 734.241 195.931 717.475V656.762ZM181.279 798.229C176.6 802.908 174.248 808.439 174.248 812.881V847.574C174.248 854.759 168.423 860.584 161.238 860.584C154.053 860.584 148.228 854.759 148.228 847.574V812.881C148.228 799.977 154.549 788.161 162.88 779.83C171.211 771.499 183.026 765.178 195.931 765.178H308.683C321.956 765.178 332.984 771.849 340.361 780.701C347.682 789.486 352.05 801.09 352.05 812.881V847.574C352.05 854.759 346.225 860.584 339.04 860.584C331.855 860.584 326.03 854.759 326.03 847.574V812.881C326.03 807.326 323.893 801.583 320.372 797.358C316.907 793.201 312.757 791.198 308.683 791.198H195.931C191.489 791.198 185.958 793.55 181.279 798.229ZM337.236 655.778C333.669 657.686 330.366 659.452 330.366 663.766V710.471C330.366 714.786 333.669 716.552 337.236 718.46C337.547 718.626 337.86 718.793 338.172 718.963L361.59 729.578C365.493 731.701 369.396 730.022 369.396 725.332V648.905C369.396 644.215 365.493 642.537 361.59 644.66L338.172 655.274C337.86 655.444 337.547 655.612 337.236 655.778Z" fill="white"/>
<rect x="137.386" y="622.069" width="242.851" height="242.851" stroke="black"/>
<path fill-rule="evenodd" clip-rule="evenodd" d="M438.782 583.04C442.375 583.04 445.287 585.952 445.287 589.545L445.287 897.445C445.287 901.038 442.375 903.95 438.782 903.95C435.19 903.95 432.277 901.038 432.277 897.445L432.277 589.545C432.277 585.952 435.19 583.04 438.782 583.04Z" fill="#009886"/>
<path d="M701.566 645.522L611.086 857.011L520.607 645.522H559.186L612.474 778.188L663.542 645.522H701.566Z" fill="white"/>
<path d="M755.295 645.522V847.574H722.822V645.522H755.295Z" fill="white"/>
<path d="M928.311 645.522V676.607H826.73V730.451H917.209V761.536H826.73V816.489H932.197V847.574H794.257V645.522H928.311Z" fill="white"/>
<path d="M960.285 645.522H1017.74C1043.09 645.522 1063.99 650.518 1080.46 660.509C1097.11 670.501 1109.23 683.36 1116.82 699.088C1124.41 714.816 1128.2 731.561 1128.2 749.324C1128.2 768.937 1123.57 786.237 1114.32 801.224C1105.26 816.027 1093.04 827.499 1077.69 835.64C1062.33 843.596 1045.58 847.574 1027.45 847.574H960.285V645.522ZM1021.62 816.489C1036.05 816.489 1048.73 813.806 1059.65 808.441C1070.75 803.075 1079.35 795.211 1085.46 784.849C1091.75 774.303 1094.89 761.721 1094.89 747.103C1094.89 731.191 1091.47 717.961 1084.63 707.414C1077.96 696.683 1069.36 688.819 1058.81 683.823C1048.45 678.827 1037.72 676.329 1026.62 676.329H992.758V816.489H1021.62Z" fill="white"/>
<path d="M1142.28 746.826C1142.28 728.323 1146.91 711.207 1156.16 695.48C1165.41 679.567 1177.9 666.893 1193.63 657.456C1209.54 648.02 1226.84 643.302 1245.53 643.302C1264.03 643.302 1281.15 648.02 1296.88 657.456C1312.79 666.893 1325.46 679.567 1334.9 695.48C1344.34 711.392 1349.05 728.508 1349.05 746.826C1349.05 765.514 1344.34 782.721 1334.9 798.449C1325.65 814.176 1313.07 826.666 1297.15 835.917C1281.24 845.169 1264.03 849.795 1245.53 849.795C1226.84 849.795 1209.54 845.261 1193.63 836.195C1177.9 826.944 1165.41 814.454 1156.16 798.726C1146.91 782.999 1142.28 765.699 1142.28 746.826ZM1175.59 746.826C1175.59 759.963 1178.73 771.99 1185.02 782.906C1191.32 793.823 1199.83 802.52 1210.56 808.996C1221.48 815.472 1233.41 818.71 1246.36 818.71C1259.13 818.71 1270.79 815.564 1281.33 809.273C1291.88 802.797 1300.21 794.101 1306.31 783.184C1312.6 772.082 1315.75 759.963 1315.75 746.826C1315.75 733.689 1312.6 721.569 1306.31 710.467C1300.02 699.366 1291.51 690.577 1280.78 684.101C1270.05 677.625 1258.3 674.387 1245.53 674.387C1232.58 674.387 1220.74 677.625 1210 684.101C1199.46 690.577 1191.04 699.366 1184.75 710.467C1178.64 721.569 1175.59 733.689 1175.59 746.826Z" fill="white"/>
</svg>
