<svg width="1367" height="438" viewBox="0 0 1367 438" fill="none" xmlns="http://www.w3.org/2000/svg">
<path d="M0 21.6832C0 9.70788 9.70789 0 21.6832 0H1344.36C1356.33 0 1366.04 9.70789 1366.04 21.6832V416.317C1366.04 428.292 1356.33 438 1344.36 438H21.6832C9.70788 438 0 428.292 0 416.317V21.6832Z" fill="#121212"/>
<path fill-rule="evenodd" clip-rule="evenodd" d="M127.931 125.762C127.931 108.997 141.522 95.406 158.287 95.406H210.327C227.092 95.406 240.683 108.997 240.683 125.762V186.475C240.683 203.241 227.092 216.832 210.327 216.832H158.287C141.522 216.832 127.931 203.241 127.931 186.475V125.762ZM113.279 267.229C108.6 271.908 106.248 277.439 106.248 281.881V316.574C106.248 323.759 100.423 329.584 93.2379 329.584C86.0528 329.584 80.228 323.759 80.228 316.574V281.881C80.228 268.977 86.5493 257.161 94.8801 248.83C103.211 240.5 115.027 234.178 127.931 234.178H240.683C253.957 234.178 264.984 240.849 272.361 249.701C279.682 258.486 284.05 270.09 284.05 281.881V316.574C284.05 323.759 278.225 329.584 271.04 329.584C263.855 329.584 258.03 323.759 258.03 316.574V281.881C258.03 276.326 255.893 270.583 252.372 266.359C248.908 262.201 244.757 260.198 240.683 260.198H127.931C123.489 260.198 117.958 262.55 113.279 267.229ZM269.237 124.778C265.669 126.686 262.367 128.452 262.367 132.766V179.471C262.367 183.786 265.669 185.552 269.237 187.46C269.547 187.626 269.86 187.793 270.173 187.963L293.59 198.578C297.493 200.701 301.396 199.022 301.396 194.332V117.905C301.396 113.216 297.493 111.537 293.59 113.66L270.173 124.274C269.86 124.445 269.547 124.612 269.237 124.778Z" fill="white"/>
<rect x="69.3862" y="91.0693" width="242.851" height="242.851" stroke="black"/>
<path fill-rule="evenodd" clip-rule="evenodd" d="M370.782 52.0396C374.375 52.0396 377.287 54.9519 377.287 58.5445L377.287 366.445C377.287 370.038 374.375 372.95 370.782 372.95C367.19 372.95 364.277 370.038 364.277 366.445L364.277 58.5445C364.277 54.9519 367.19 52.0396 370.782 52.0396Z" fill="#009886"/>
<path d="M633.566 114.522L543.086 326.011L452.607 114.522H491.186L544.474 247.188L595.542 114.522H633.566Z" fill="white"/>
<path d="M687.295 114.522V316.574H654.822V114.522H687.295Z" fill="white"/>
<path d="M860.311 114.522V145.607H758.73V199.451H849.209V230.536H758.73V285.489H864.197V316.574H726.257V114.522H860.311Z" fill="white"/>
<path d="M892.285 114.522H949.737C975.086 114.522 995.994 119.518 1012.46 129.509C1029.11 139.501 1041.23 152.36 1048.82 168.088C1056.41 183.816 1060.2 200.561 1060.2 218.324C1060.2 237.937 1055.57 255.237 1046.32 270.224C1037.26 285.027 1025.04 296.499 1009.69 304.64C994.329 312.596 977.584 316.574 959.451 316.574H892.285V114.522ZM953.623 285.489C968.055 285.489 980.729 282.806 991.646 277.441C1002.75 272.075 1011.35 264.211 1017.46 253.849C1023.75 243.303 1026.89 230.721 1026.89 216.103C1026.89 200.191 1023.47 186.961 1016.63 176.414C1009.96 165.683 1001.36 157.819 990.814 152.823C980.452 147.827 969.72 145.329 958.618 145.329H924.758V285.489H953.623Z" fill="white"/>
<path d="M1074.28 215.826C1074.28 197.323 1078.91 180.207 1088.16 164.48C1097.41 148.567 1109.9 135.893 1125.63 126.456C1141.54 117.02 1158.84 112.302 1177.53 112.302C1196.03 112.302 1213.15 117.02 1228.88 126.456C1244.79 135.893 1257.46 148.567 1266.9 164.48C1276.34 180.392 1281.05 197.508 1281.05 215.826C1281.05 234.514 1276.34 251.721 1266.9 267.449C1257.65 283.176 1245.07 295.666 1229.15 304.917C1213.24 314.169 1196.03 318.795 1177.53 318.795C1158.84 318.795 1141.54 314.261 1125.63 305.195C1109.9 295.944 1097.41 283.454 1088.16 267.726C1078.91 251.999 1074.28 234.699 1074.28 215.826ZM1107.59 215.826C1107.59 228.963 1110.73 240.99 1117.02 251.906C1123.32 262.823 1131.83 271.52 1142.56 277.996C1153.48 284.472 1165.41 287.71 1178.36 287.71C1191.13 287.71 1202.79 284.564 1213.33 278.273C1223.88 271.797 1232.21 263.101 1238.31 252.184C1244.6 241.082 1247.75 228.963 1247.75 215.826C1247.75 202.689 1244.6 190.569 1238.31 179.467C1232.02 168.366 1223.51 159.577 1212.78 153.101C1202.05 146.625 1190.3 143.387 1177.53 143.387C1164.58 143.387 1152.74 146.625 1142 153.101C1131.46 159.577 1123.04 168.366 1116.75 179.467C1110.64 190.569 1107.59 202.689 1107.59 215.826Z" fill="white"/>
</svg>
